<svg width="34" height="34" viewBox="0 0 34 34" fill="none" xmlns="http://www.w3.org/2000/svg">
<path d="M18.4563 2.83331C20.0501 2.83756 20.859 2.84606 21.5574 2.8659L21.8322 2.87581C22.1496 2.88715 22.4627 2.90131 22.8409 2.91831C24.3482 2.98915 25.3767 3.22715 26.2792 3.57706C27.2142 3.9369 28.0018 4.42423 28.7895 5.21048C29.5101 5.91843 30.0676 6.77515 30.4229 7.72081C30.7728 8.62323 31.0108 9.65173 31.0817 11.1605C31.0987 11.5373 31.1128 11.8504 31.1242 12.1691L31.1327 12.444C31.1539 13.141 31.1624 13.9499 31.1652 15.5436L31.1667 16.6005V18.4563C31.1701 19.4896 31.1592 20.523 31.1341 21.556L31.1256 21.8308C31.1142 22.1496 31.1001 22.4626 31.0831 22.8395C31.0122 24.3482 30.7714 25.3753 30.4229 26.2791C30.0676 27.2248 29.5101 28.0815 28.7895 28.7895C28.0815 29.5101 27.2248 30.0676 26.2792 30.4229C25.3767 30.7728 24.3482 31.0108 22.8409 31.0816L21.8322 31.1241L21.5574 31.1326C20.859 31.1525 20.0501 31.1624 18.4563 31.1652L17.3995 31.1666H15.5451C14.5113 31.1703 13.4775 31.1594 12.444 31.1341L12.1692 31.1256C11.8329 31.1128 11.4966 31.0982 11.1605 31.0816C9.65316 31.0108 8.62466 30.7728 7.72083 30.4229C6.77567 30.0674 5.91945 29.51 5.21191 28.7895C4.49075 28.0817 3.93281 27.2249 3.57708 26.2791C3.22716 25.3767 2.98916 24.3482 2.91833 22.8395L2.87583 21.8308L2.86874 21.556C2.84263 20.523 2.83082 19.4897 2.83333 18.4563V15.5436C2.8294 14.5103 2.83979 13.477 2.86449 12.444L2.87441 12.1691C2.88574 11.8504 2.89991 11.5373 2.91691 11.1605C2.98774 9.65173 3.22574 8.62465 3.57566 7.72081C3.93223 6.77476 4.49114 5.91801 5.21333 5.21048C5.92046 4.49017 6.77617 3.93275 7.72083 3.57706C8.62466 3.22715 9.65174 2.98915 11.1605 2.91831C11.5373 2.90131 11.8518 2.88715 12.1692 2.87581L12.444 2.86731C13.477 2.84214 14.5103 2.83128 15.5437 2.83473L18.4563 2.83331ZM17 9.91665C15.1214 9.91665 13.3197 10.6629 11.9913 11.9913C10.6629 13.3197 9.91666 15.1214 9.91666 17C9.91666 18.8786 10.6629 20.6803 11.9913 22.0087C13.3197 23.337 15.1214 24.0833 17 24.0833C18.8786 24.0833 20.6803 23.337 22.0087 22.0087C23.337 20.6803 24.0833 18.8786 24.0833 17C24.0833 15.1214 23.337 13.3197 22.0087 11.9913C20.6803 10.6629 18.8786 9.91665 17 9.91665ZM17 12.75C17.5581 12.7499 18.1108 12.8597 18.6265 13.0732C19.1421 13.2867 19.6107 13.5997 20.0054 13.9943C20.4001 14.3889 20.7132 14.8573 20.9269 15.3729C21.1406 15.8885 21.2506 16.4412 21.2507 16.9993C21.2508 17.5574 21.141 18.1101 20.9275 18.6257C20.714 19.1414 20.401 19.61 20.0064 20.0047C19.6118 20.3994 19.1434 20.7125 18.6278 20.9262C18.1122 21.1399 17.5595 21.2499 17.0014 21.25C15.8742 21.25 14.7932 20.8022 13.9962 20.0052C13.1992 19.2082 12.7514 18.1272 12.7514 17C12.7514 15.8728 13.1992 14.7918 13.9962 13.9948C14.7932 13.1977 15.8742 12.75 17.0014 12.75M24.4389 7.79165C23.9693 7.79165 23.5188 7.97822 23.1867 8.31031C22.8546 8.64241 22.6681 9.09283 22.6681 9.56248C22.6681 10.0321 22.8546 10.4826 23.1867 10.8146C23.5188 11.1467 23.9693 11.3333 24.4389 11.3333C24.9086 11.3333 25.359 11.1467 25.6911 10.8146C26.0232 10.4826 26.2097 10.0321 26.2097 9.56248C26.2097 9.09283 26.0232 8.64241 25.6911 8.31031C25.359 7.97822 24.9086 7.79165 24.4389 7.79165Z" fill="#FF5777"/>
</svg>
