<svg width="37" height="34" viewBox="0 0 37 34" fill="none" xmlns="http://www.w3.org/2000/svg">
<path fill-rule="evenodd" clip-rule="evenodd" d="M27.1454 4.25C28.3453 4.25 29.496 4.69777 30.3445 5.4948C31.1929 6.29183 31.6696 7.37283 31.6696 8.5V25.5C31.6696 26.6272 31.1929 27.7082 30.3445 28.5052C29.496 29.3022 28.3453 29.75 27.1454 29.75H9.04861C7.84872 29.75 6.69797 29.3022 5.84952 28.5052C5.00107 27.7082 4.52441 26.6272 4.52441 25.5V8.5C4.52441 7.37283 5.00107 6.29183 5.84952 5.4948C6.69797 4.69777 7.84872 4.25 9.04861 4.25H27.1454ZM12.0647 14.1667C11.6648 14.1667 11.2812 14.3159 10.9984 14.5816C10.7156 14.8473 10.5567 15.2076 10.5567 15.5833V22.6667C10.5567 23.0424 10.7156 23.4027 10.9984 23.6684C11.2812 23.9341 11.6648 24.0833 12.0647 24.0833C12.4647 24.0833 12.8483 23.9341 13.1311 23.6684C13.4139 23.4027 13.5728 23.0424 13.5728 22.6667V15.5833C13.5728 15.2076 13.4139 14.8473 13.1311 14.5816C12.8483 14.3159 12.4647 14.1667 12.0647 14.1667ZM16.5889 12.75C16.189 12.75 15.8054 12.8993 15.5226 13.1649C15.2398 13.4306 15.0809 13.7909 15.0809 14.1667V22.6667C15.0809 23.0424 15.2398 23.4027 15.5226 23.6684C15.8054 23.9341 16.189 24.0833 16.5889 24.0833C16.9889 24.0833 17.3725 23.9341 17.6553 23.6684C17.9381 23.4027 18.097 23.0424 18.097 22.6667V17.4817C18.557 16.9943 19.3336 16.422 20.1977 16.0749C20.6999 15.8738 21.4555 15.7916 21.9803 15.9474C22.1544 15.9889 22.3094 16.0824 22.4221 16.2137C22.5005 16.3129 22.6212 16.5339 22.6212 17V22.6667C22.6212 23.0424 22.7801 23.4027 23.0629 23.6684C23.3457 23.9341 23.7293 24.0833 24.1293 24.0833C24.5292 24.0833 24.9128 23.9341 25.1956 23.6684C25.4784 23.4027 25.6373 23.0424 25.6373 22.6667V17C25.6373 16.0508 25.3809 15.2065 24.8471 14.5293C24.3558 13.9153 23.6683 13.465 22.8851 13.2444C21.5248 12.8435 20.0183 13.0659 19.0124 13.4711C18.6904 13.6012 18.3767 13.7488 18.0729 13.9131C18.0096 13.5867 17.8265 13.2914 17.5553 13.0789C17.2841 12.8663 16.9421 12.75 16.5889 12.75ZM12.0647 9.91667C11.6648 9.91667 11.2812 10.0659 10.9984 10.3316C10.7156 10.5973 10.5567 10.9576 10.5567 11.3333C10.5567 11.7091 10.7156 12.0694 10.9984 12.3351C11.2812 12.6007 11.6648 12.75 12.0647 12.75C12.4647 12.75 12.8483 12.6007 13.1311 12.3351C13.4139 12.0694 13.5728 11.7091 13.5728 11.3333C13.5728 10.9576 13.4139 10.5973 13.1311 10.3316C12.8483 10.0659 12.4647 9.91667 12.0647 9.91667Z" fill="#FF5777"/>
</svg>
