<svg width="31" height="37" viewBox="0 0 31 37" fill="none" xmlns="http://www.w3.org/2000/svg">
<path d="M16.4673 35.9872L16.4494 35.9909L16.3335 36.0546L16.3009 36.0619L16.278 36.0546L16.1622 35.9909C16.1448 35.9848 16.1317 35.9878 16.123 36L16.1165 36.0182L16.0888 36.7978L16.0969 36.8342L16.1133 36.8579L16.2829 36.9926L16.3074 36.9999L16.327 36.9926L16.4967 36.8579L16.5163 36.8287L16.5228 36.7978L16.495 36.02C16.4907 36.0006 16.4814 35.9897 16.4673 35.9872ZM16.8997 35.7814L16.8785 35.7851L16.5766 35.9544L16.5603 35.9727L16.5554 35.9927L16.5848 36.7759L16.5929 36.7978L16.606 36.8105L16.9339 36.9799C16.9546 36.986 16.9704 36.9811 16.9813 36.9653L16.9878 36.9398L16.9323 35.8215C16.9269 35.7996 16.916 35.7863 16.8997 35.7814ZM15.7331 35.7851C15.7259 35.7802 15.7173 35.7786 15.7091 35.7807C15.7009 35.7827 15.6937 35.7882 15.689 35.796L15.6793 35.8215L15.6238 36.9398C15.6249 36.9617 15.6341 36.9763 15.6515 36.9835L15.676 36.9799L16.0039 36.8105L16.0203 36.7959L16.0268 36.7759L16.0545 35.9927L16.0496 35.9708L16.0333 35.9526L15.7331 35.7851Z" fill="#FF5777"/>
<path d="M28.5526 25.4997C29.1811 25.5 29.7854 25.7703 30.2403 26.2545C30.6952 26.7387 30.9658 27.3996 30.996 28.1005C31.0262 28.8013 30.8137 29.4882 30.4026 30.0189C29.9914 30.5496 29.4132 30.8834 28.7876 30.9511L28.5526 30.9639H2.44737C1.81886 30.9635 1.21456 30.6933 0.759685 30.2091C0.304814 29.7249 0.0342435 29.0639 0.00403936 28.3631C-0.0261648 27.6622 0.186313 26.9753 0.597444 26.4446C1.00858 25.9139 1.58684 25.5801 2.21242 25.5124L2.44737 25.4997H28.5526ZM28.5526 12.7498C29.2017 12.7498 29.8242 13.0377 30.2832 13.55C30.7422 14.0624 31 14.7573 31 15.4819C31 16.2065 30.7422 16.9015 30.2832 17.4138C29.8242 17.9262 29.2017 18.214 28.5526 18.214H2.44737C1.79829 18.214 1.17579 17.9262 0.716818 17.4138C0.257847 16.9015 0 16.2065 0 15.4819C0 14.7573 0.257847 14.0624 0.716818 13.55C1.17579 13.0377 1.79829 12.7498 2.44737 12.7498H28.5526ZM28.5526 0C29.2017 0 29.8242 0.287846 30.2832 0.800215C30.7422 1.31258 31 2.00751 31 2.73211C31 3.45671 30.7422 4.15163 30.2832 4.664C29.8242 5.17637 29.2017 5.46421 28.5526 5.46421H2.44737C1.79829 5.46421 1.17579 5.17637 0.716818 4.664C0.257847 4.15163 0 3.45671 0 2.73211C0 2.00751 0.257847 1.31258 0.716818 0.800215C1.17579 0.287846 1.79829 0 2.44737 0H28.5526Z" fill="#FF5777"/>
</svg>
