<svg width="78" height="80" viewBox="0 0 78 80" fill="none" xmlns="http://www.w3.org/2000/svg">
<rect x="0.5" y="0.5" width="77" height="79" rx="19.5" fill="#FF5777" fill-opacity="0.1"/>
<rect x="0.5" y="0.5" width="77" height="79" rx="19.5" stroke="#FF5777"/>
<path d="M23 22C23 18.6906 25.6906 16 29 16H50C53.3094 16 56 18.6906 56 22V58C56 61.3094 53.3094 64 50 64H29C25.6906 64 23 61.3094 23 58V22ZM42.5 58C42.5 55.6906 40 54.2472 38 55.4019C37.0718 55.9378 36.5 56.9282 36.5 58C36.5 60.3094 39 61.7528 41 60.5981C41.9282 60.0622 42.5 59.0718 42.5 58ZM50 22H29V52H50V22Z" fill="#491D8B"/>
</svg>
