<svg width="78" height="80" viewBox="0 0 78 80" fill="none" xmlns="http://www.w3.org/2000/svg">
<rect x="0.5" y="0.5" width="77" height="79" rx="19.5" fill="#FF5777" fill-opacity="0.1"/>
<rect x="0.5" y="0.5" width="77" height="79" rx="19.5" stroke="#FF5777"/>
<path d="M19.5556 13C16.4913 13 14 15.9709 14 19.625V49.4375C14 53.0916 16.4913 56.0625 19.5556 56.0625H34.8333L33.9045 59.375H27.8889C26.3524 59.375 25.1111 60.8553 25.1111 62.6875C25.1111 64.5197 26.3524 66 27.8889 66H50.1111C51.6476 66 52.8889 64.5197 52.8889 62.6875C52.8889 60.8553 51.6476 59.375 50.1111 59.375H44.0955L43.1667 56.0625H58.4444C61.5087 56.0625 64 53.0916 64 49.4375V19.625C64 15.9709 61.5087 13 58.4444 13H19.5556ZM58.4444 19.625V42.8125H19.5556V19.625H58.4444Z" fill="#610CE1" fill-opacity="0.71"/>
</svg>
